<svg width="49" height="54" viewBox="0 0 49 54" fill="none" xmlns="http://www.w3.org/2000/svg">
<mask id="mask0_36_1776" style="mask-type:luminance" maskUnits="userSpaceOnUse" x="0" y="0" width="49" height="54">
<path d="M41.1048 17.6667C39.3091 17.6667 37.5869 16.9534 36.3171 15.6836C35.0473 14.4138 34.334 12.6917 34.334 10.8959C34.334 9.10018 35.0473 7.37799 36.3171 6.10821C37.5869 4.83843 39.3091 4.12508 41.1048 4.12508C42.9006 4.12508 44.6227 4.83843 45.8925 6.10821C47.1623 7.37799 47.8757 9.10018 47.8757 10.8959C47.8757 12.6917 47.1623 14.4138 45.8925 15.6836C44.6227 16.9534 42.9006 17.6667 41.1048 17.6667ZM7.25065 12.2501C5.81406 12.2501 4.43631 11.6794 3.42049 10.6636C2.40467 9.64775 1.83398 8.27 1.83398 6.83341C1.83398 5.39683 2.40467 4.01907 3.42049 3.00325C4.43631 1.98743 5.81406 1.41675 7.25065 1.41675C8.68724 1.41675 10.065 1.98743 11.0808 3.00325C12.0966 4.01907 12.6673 5.39683 12.6673 6.83341C12.6673 8.27 12.0966 9.64775 11.0808 10.6636C10.065 11.6794 8.68724 12.2501 7.25065 12.2501Z" fill="#555555" stroke="white" stroke-width="2" stroke-miterlimit="2"/>
<path d="M26.209 48.8126L34.334 42.0418V33.9168C34.334 29.2232 37.0423 25.7918 41.1048 25.7918C45.1673 25.7918 47.8757 29.2232 47.8757 33.9168V52.8751M23.5007 40.6876L15.3757 33.9168V28.5001C15.3757 23.8066 12.6673 20.3751 8.60482 20.3751C4.54232 20.3751 1.83398 23.8066 1.83398 28.5001V52.8751" stroke="white" stroke-width="2" stroke-linecap="round" stroke-linejoin="round"/>
</mask>
<g mask="url(#mask0_36_1776)">
<path d="M-9 -4H56V61H-9V-4Z" fill="#0076CE"/>
</g>
</svg>
