<svg width="55" height="57" viewBox="0 0 55 57" fill="none" xmlns="http://www.w3.org/2000/svg">
<mask id="mask0_36_1786" style="mask-type:luminance" maskUnits="userSpaceOnUse" x="0" y="0" width="55" height="57">
<path d="M1.77148 5.47913C1.77148 4.40168 2.1995 3.36837 2.96136 2.6065C3.72323 1.84464 4.75654 1.41663 5.83398 1.41663H38.334C39.4114 1.41663 40.4447 1.84464 41.2066 2.6065C41.9685 3.36837 42.3965 4.40168 42.3965 5.47913V55.5833H5.83398C4.75654 55.5833 3.72323 55.1553 2.96136 54.3934C2.1995 53.6315 1.77148 52.5982 1.77148 51.5208V5.47913Z" fill="#555555" stroke="white" stroke-width="2" stroke-linejoin="round"/>
<path d="M42.3965 28.5C42.3965 27.7817 42.6818 27.0928 43.1897 26.5849C43.6976 26.077 44.3865 25.7916 45.1048 25.7916H50.5215C51.2398 25.7916 51.9287 26.077 52.4366 26.5849C52.9445 27.0928 53.2298 27.7817 53.2298 28.5V51.5208C53.2298 52.5982 52.8018 53.6315 52.0399 54.3934C51.2781 55.1553 50.2448 55.5833 49.1673 55.5833H42.3965V28.5Z" stroke="white" stroke-width="2" stroke-linejoin="round"/>
<path d="M9.89648 12.2499H20.7298M9.89648 21.7291H26.1465" stroke="white" stroke-width="2" stroke-linecap="round" stroke-linejoin="round"/>
</mask>
<g mask="url(#mask0_36_1786)">
<path d="M-5 -4H60V61H-5V-4Z" fill="#0076CE"/>
</g>
</svg>
