<svg width="54" height="54" viewBox="0 0 54 54" fill="none" xmlns="http://www.w3.org/2000/svg">
<mask id="mask0_36_1767" style="mask-type:luminance" maskUnits="userSpaceOnUse" x="0" y="0" width="54" height="54">
<path d="M24.4368 47.4584C37.1511 47.4584 47.4577 37.1519 47.4577 24.4376C47.4577 11.7233 37.1511 1.41675 24.4368 1.41675C11.7226 1.41675 1.41602 11.7233 1.41602 24.4376C1.41602 37.1519 11.7226 47.4584 24.4368 47.4584Z" fill="#555555" stroke="white" stroke-width="2" stroke-linejoin="round"/>
<path d="M32.0964 15.4228C31.0915 14.4154 29.8975 13.6164 28.5828 13.0719C27.2682 12.5274 25.8589 12.2481 24.4359 12.25C23.013 12.2481 21.6037 12.5274 20.289 13.0719C18.9744 13.6164 17.7803 14.4154 16.7754 15.4228M40.9865 40.9881L52.4766 52.4782" stroke="white" stroke-width="2" stroke-linecap="round" stroke-linejoin="round"/>
</mask>
<g mask="url(#mask0_36_1767)">
<path d="M-4 -4H61V61H-4V-4Z" fill="#0076CE"/>
</g>
</svg>
